<svg xmlns="http://www.w3.org/2000/svg" width="19.88" height="20" viewBox="0 0 19.88 20">
  <g id="linkedin-ico" transform="translate(298 1170)">
    <path id="linkedin-ico-2" data-name="linkedin-ico" d="M18.47,0H1.53A1.45,1.45,0,0,0,.06,1.43V18.57A1.45,1.45,0,0,0,1.53,20H18.47a1.45,1.45,0,0,0,1.47-1.43V1.43A1.45,1.45,0,0,0,18.47,0ZM6.09,16.74h-3v-9h3ZM4.59,6.48a1.56,1.56,0,1,1,0-3.12,1.57,1.57,0,1,1,0,3.12ZM16.91,16.74h-3V11.91c0-1.21-.43-2-1.52-2A1.65,1.65,0,0,0,10.85,11a2,2,0,0,0-.1.73v5h-3v-9h3V9a3,3,0,0,1,2.71-1.5c2,0,3.45,1.29,3.45,4.06Z" transform="translate(-298.06 -1170)" fill="#fff"/>
  </g>
</svg>
